# xmcd
#
# Track frame offsets: 
#        150
#        13789
#        25364
#        37866
#        43319
#        55187
#        72853
#        83025
#        92539
#        110333
#        121429
#        134621
#        143550
#        161500
#        173853
#        184916
#        194707
#        205822
#        216621
#        233632
#        243053
#        257017
#        267262
#        280963
#        293340
#        303462
#        317598
#        329890
#
# Disc length: 4525 seconds
#
# Revision: 0
# Processed by: cddbd v1.5.2PL0 Copyright (c) Steve Scherf et al.
# Submitted via: ExactAudioCopy v0.95b4
#
DISCID=a011ab1c
DTITLE=Bob Wills - 28 Rare Presto Label Items
DYEAR=1900
DGENRE=Country
TTITLE0=Ida (Sweet As Apple Cider)
TTITLE1=Silver Bells
TTITLE2=Beaumont Rag
TTITLE3=Gray Eagle
TTITLE4=This Is Southland
TTITLE5=The Waltz You Saved For Me
TTITLE6=Liberty
TTITLE7=Playboy Chimes
TTITLE8=Tuxedo Junction
TTITLE9=Just Friends
TTITLE10=By An Old Watermill By A Waterfall
TTITLE11=Lonesome Hearted Blues
TTITLE12=Talking 'Bout You
TTITLE13=A Heart Full of Love (For A Handful of Kisses)
TTITLE14=Spanish Fandango
TTITLE15=Whose Heart Are You Breaking Now?
TTITLE16=Rosetta
TTITLE17=Rubber Dolly
TTITLE18=Mixicali Rose
TTITLE19=Rainbow
TTITLE20=In The Mood
TTITLE21=Sugar Moon
TTITLE22=Elmer's Tune
TTITLE23=My Life's Been A Pleasure
TTITLE24=Texas Home
TTITLE25=Dipsy Doodle
TTITLE26=Just A Little Lovin' (Will Go A Long Way)
TTITLE27=Sunrise Serenade
EXTD=
EXTT0=
EXTT1=
EXTT2=
EXTT3=
EXTT4=
EXTT5=
EXTT6=
EXTT7=
EXTT8=
EXTT9=
EXTT10=
EXTT11=
EXTT12=
EXTT13=
EXTT14=
EXTT15=
EXTT16=
EXTT17=
EXTT18=
EXTT19=
EXTT20=
EXTT21=
EXTT22=
EXTT23=
EXTT24=
EXTT25=
EXTT26=
EXTT27=
PLAYORDER=
